HIERARCHY
ROOT Hips
{
     OFFSET 38.95220 98.65140 7.67574
     CHANNELS 6 Xposition Yposition Zposition Zrotation Xrotation Yrotation
     JOINT Spine
     {
          OFFSET -0.00000 11.89050 0.00000
          CHANNELS 3 Zrotation Xrotation Yrotation
          JOINT Spine1
          {
               OFFSET 0.00000 25.65740 0.12766
               CHANNELS 3 Zrotation Xrotation Yrotation
               JOINT HEad
               {
                    OFFSET 0.00000 8.73416 0.01134
                    CHANNELS 3 Zrotation Xrotation Yrotation
                    End Site
                    {
                         OFFSET -0.29000 12.77420 2.51395
                    }
               }
               JOINT LeftShoulder1
               {
                    OFFSET 8.99000 -0.36225 -0.22000
                    CHANNELS 3 Zrotation Xrotation Yrotation
                    JOINT LeftArm
                    {
                         OFFSET 10.28270 -0.00338 0.32212
                         CHANNELS 3 Zrotation Xrotation Yrotation
                         JOINT LeftForeArm
                         {
                              OFFSET 32.76690 0.09914 -1.42434
                              CHANNELS 3 Zrotation Xrotation Yrotation
                              JOINT LeftHand
                              {
                                   OFFSET 27.56430 0.08536 1.02216
                                   CHANNELS 3 Zrotation Xrotation Yrotation
                                   End Site
                                   {
                                        OFFSET 16.74430 -0.60000 1.50291
                                   }
                              }
                         }
                    }
               }
               JOINT RightShoulder
               {
                    OFFSET -8.99000 -0.36225 -0.22000
                    CHANNELS 3 Zrotation Xrotation Yrotation
                    JOINT RightArm
                    {
                         OFFSET -10.28270 -0.00338 0.32212
                         CHANNELS 3 Zrotation Xrotation Yrotation
                         JOINT RightForeArm
                         {
                              OFFSET -32.89710 0.09914 -1.42434
                              CHANNELS 3 Zrotation Xrotation Yrotation
                              JOINT RightHand
                              {
                                   OFFSET -27.49210 0.08536 1.02216
                                   CHANNELS 3 Zrotation Xrotation Yrotation
                                   End Site
                                   {
                                        OFFSET -16.63120 -0.60000 1.50291
                                   }
                              }
                         }
                    }
               }
          }
     }
     JOINT LeftUpLeg
     {
          OFFSET 8.94580 -8.66707 0.10165
          CHANNELS 3 Zrotation Xrotation Yrotation
          JOINT LeftLeg
          {
               OFFSET -0.00000 -44.42270 1.37270
               CHANNELS 3 Zrotation Xrotation Yrotation
               JOINT LeftFoot
               {
                    OFFSET -0.25355 -42.09240 -1.46059
                    CHANNELS 3 Zrotation Xrotation Yrotation
                    JOINT LeftToes
                    {
                         OFFSET -0.04000 -4.41509 8.49910
                         CHANNELS 3 Zrotation Xrotation Yrotation
                         End Site
                         {
                              OFFSET 0.08000 -0.04745 9.77979
                         }
                    }
               }
          }
     }
     JOINT RightUpLeg
     {
          OFFSET -8.94580 -8.66707 0.10165
          CHANNELS 3 Zrotation Xrotation Yrotation
          JOINT RightLeg
          {
               OFFSET -0.00000 -44.42270 1.37270
               CHANNELS 3 Zrotation Xrotation Yrotation
               JOINT RightFoot
               {
                    OFFSET 0.25355 -42.09240 -1.46059
                    CHANNELS 3 Zrotation Xrotation Yrotation
                    JOINT RightToes
                    {
                         OFFSET 0.04000 -4.41509 8.49910
                         CHANNELS 3 Zrotation Xrotation Yrotation
                         End Site
                         {
                              OFFSET -0.08000 -0.13745 9.77979
                         }
                    }
               }
          }
     }
}
MOTION
Frames: 14
Frame Time: 0.01667
54.99890 88.58180 54.52130 7.95367 6.80839 152.14600 -1.73999 4.36691 -3.64084 -2.54854 8.52583 -7.15516 4.76308 3.77380 57.97200 -0.00000 -0.00000 0.00000 -66.10550 -82.12440 -70.85380 -20.39770 32.50100 -76.28760 5.55594 9.67997 -0.87718 11.63130 0.30593 -0.65261 -26.59370 -39.26580 -35.21570 2.58003 5.17531 61.60530 -5.55712 9.68432 0.87760 19.73120 -3.30280 0.78570 -3.50915 54.12960 8.09111 -17.91600 -3.87613 0.60604 -6.68817 -55.56890 -24.71070 -18.05110 -6.25278 2.82064 -17.63640 36.52550 28.14150 24.77160 -6.17298 -0.49033 -13.26610 -16.33610 3.20860 
55.98330 88.14100 56.32300 8.48439 5.57294 150.34100 -1.54679 4.34420 -3.68420 -1.85257 8.46880 -7.31037 3.93735 3.25345 59.19250 -0.00000 -0.00000 0.00000 -77.27470 -81.22100 -82.55880 -20.77660 32.91640 -76.80420 5.55594 9.67997 -0.87718 11.86300 0.31134 -0.63203 -30.45180 -41.08090 -37.46360 4.69322 8.21909 67.24470 -5.55712 9.68432 0.87760 20.42420 -4.72807 0.21611 -1.85551 54.95750 10.52620 -17.59560 -2.85626 0.74676 -6.64909 -56.57020 -23.79160 -17.49880 -4.56893 1.50765 -16.84600 30.75120 31.05310 23.94000 -11.62610 0.65354 -12.22990 -15.20740 2.58839 
56.74960 87.97080 58.12040 9.10151 4.38647 149.16901 -0.63038 4.46283 -3.88823 -1.21025 8.66893 -7.46893 3.14086 2.65805 60.24820 -0.00000 -0.00000 0.00000 -87.50990 -80.06370 -93.05620 -21.39150 33.57940 -77.56460 5.55594 9.67997 -0.87718 12.33660 0.31716 -0.62605 -35.34830 -42.79860 -41.42070 6.88128 11.93340 73.18760 -5.55712 9.68432 0.87760 20.95470 -5.95212 -0.55009 0.65342 55.11870 11.41380 -16.29580 -1.71887 0.84660 -6.09389 -57.76740 -21.43030 -16.23300 -4.25081 -0.20714 -16.18710 27.61030 32.55650 27.10730 -21.77300 3.23530 -3.68443 -4.58988 1.49756 
57.25280 88.11880 59.91040 9.92652 3.35047 148.42599 0.91194 4.79760 -4.17176 -0.57351 9.28199 -7.56846 2.33861 1.88024 61.08830 -0.00000 -0.00000 0.00000 -96.36740 -78.70380 -101.86100 -22.19860 34.43030 -78.45230 5.55594 9.67997 -0.87718 12.99240 0.32759 -0.60342 -40.91060 -44.26980 -46.73900 9.00635 15.97820 79.36860 -5.55712 9.68432 0.87760 21.42490 -6.80034 -1.33485 3.61661 54.51130 12.22400 -16.04690 -0.59461 0.98450 -5.99802 -57.59950 -21.29100 -14.59260 -4.99589 -1.91967 -15.22900 27.01630 31.17420 29.06530 -27.65920 5.09199 3.37001 5.91113 2.54810 
57.78410 88.55970 61.78110 10.67900 2.75120 147.89400 1.88109 5.31330 -4.31818 -0.11056 10.29630 -7.61666 1.57343 0.95672 61.64350 -0.00000 -0.00000 0.00000 -103.16100 -77.22200 -108.29200 -23.06280 35.32130 -79.32080 5.55594 9.67997 -0.87718 13.76040 0.34954 -0.52002 -46.60450 -45.37060 -52.81570 10.94670 20.05820 85.75670 -5.55712 9.68432 0.87760 21.72440 -7.26078 -1.93796 6.52345 53.43320 12.38920 -14.40100 0.92729 1.06329 -5.07688 -57.56550 -18.86710 -13.21500 -6.80736 -3.09239 -14.09280 28.31910 32.85940 22.28880 -27.29080 3.72211 4.66825 5.75868 -0.32512 
58.45800 89.03270 63.70270 11.22410 2.60809 147.60899 2.15289 5.92505 -4.35777 0.10234 11.53690 -7.66981 0.91902 0.09319 61.84580 -0.00000 -0.00000 0.00000 -107.08700 -75.73000 -111.63100 -23.75460 36.03470 -80.05040 5.55594 9.67997 -0.87718 14.60580 0.39297 -0.32445 -50.97830 -45.92090 -58.09310 12.47860 23.25600 92.28490 -5.55712 9.68432 0.87760 22.01260 -7.35093 -2.36156 8.60518 51.99720 12.24170 -13.49080 1.21558 1.02630 -4.20623 -55.93640 -17.40170 -12.13630 -8.28552 -3.68617 -12.81270 29.64660 33.39690 16.99670 -23.36420 2.14688 0.61693 0.37188 -0.03023 
59.23720 89.62240 65.53370 11.45310 2.76889 147.73500 2.10296 6.49459 -4.40026 0.03385 12.71150 -7.78342 0.38744 -0.43219 61.65730 -0.00000 -0.00000 0.00000 -107.67000 -74.27170 -111.53100 -24.03800 36.37190 -80.59040 5.55594 9.67997 -0.87718 15.49850 0.46231 -0.00602 -53.17760 -46.13410 -61.43270 13.40890 25.16630 98.86560 -5.55712 9.68432 0.87760 22.30580 -7.22617 -2.62685 9.30584 50.20370 12.23520 -14.87330 -0.04429 0.97899 -3.10965 -52.78690 -15.79080 -11.31840 -9.14253 -3.90431 -11.72800 30.63270 32.69590 15.54570 -22.99500 1.88630 1.41335 1.01389 -0.75931 
60.13100 90.16970 67.22750 11.19870 3.08268 148.40100 1.86031 6.88989 -4.47806 -0.33323 13.54720 -7.96697 -0.09428 -0.43987 61.11370 -0.00000 -0.00000 0.00000 -105.23500 -72.72270 -108.39000 -23.82030 36.27170 -80.95530 5.55594 9.67997 -0.87718 16.37420 0.54939 0.38076 -54.88810 -46.49250 -63.91630 13.86960 27.03020 105.18000 -5.55712 9.68432 0.87760 22.79040 -7.05199 -2.82791 8.77785 47.91990 13.89890 -15.82630 -0.10228 1.03577 -3.60438 -50.04920 -19.21960 -10.92250 -9.25140 -4.06709 -10.96730 30.67850 31.38650 15.21150 -23.99750 1.97512 2.86732 2.87734 -0.92295 
61.05040 90.46180 68.76760 10.45210 3.37755 149.61200 1.64094 7.06074 -4.58925 -0.91977 13.93170 -8.15734 -0.58906 0.02756 60.34120 -0.00000 -0.00000 0.00000 -101.11400 -70.87710 -103.52300 -23.23940 35.85840 -81.18090 5.55594 9.67997 -0.87718 17.15050 0.63685 0.74969 -56.20360 -47.11900 -65.41520 13.89100 28.69920 110.97000 -5.55712 9.68432 0.87760 23.58570 -7.21034 -3.02249 7.36599 45.42810 13.49840 -16.10840 0.13715 1.08698 -3.49117 -48.94080 -19.64030 -11.07260 -8.87226 -4.34256 -10.43630 29.70190 28.85180 15.68750 -21.67150 1.72202 -2.89045 -2.21530 3.99191 
61.87510 90.90010 70.14420 9.35580 3.54188 151.15601 1.50553 7.02888 -4.65000 -1.62204 13.92620 -8.23215 -1.06921 0.72716 59.50640 -0.00000 -0.00000 0.00000 -97.07230 -68.69690 -98.64070 -22.57400 35.36130 -81.30430 5.55594 9.67997 -0.87718 17.75690 0.70822 1.03488 -57.18330 -48.16970 -65.92160 13.56140 30.07200 116.04200 -5.55712 9.68432 0.87760 24.15510 -7.76389 -3.00543 5.70303 42.95910 11.39900 -15.81900 -1.19835 0.89030 -1.70533 -45.01310 -14.89860 -11.57500 -8.59851 -4.69025 -9.96433 28.56820 26.05500 16.78340 -20.46430 1.68321 -6.42377 -5.57433 7.38088 
62.43050 91.41000 71.37930 8.19105 3.49400 152.73000 1.74580 6.88943 -4.63000 -2.27104 13.70840 -8.07537 -1.48356 1.34801 58.74420 -0.00000 -0.00000 0.00000 -94.29930 -66.43080 -94.89700 -22.05930 34.97330 -81.37400 5.55594 9.67997 -0.87718 18.16240 0.75848 1.22931 -57.76930 -49.80060 -65.40260 13.02770 31.12530 120.21200 -5.55712 9.68432 0.87760 24.57620 -8.49509 -2.69448 4.24758 40.30620 9.53351 -15.33670 -1.84298 0.77997 -0.86347 -41.96920 -12.43670 -12.22250 -8.75281 -5.02263 -9.33696 28.13680 24.94600 17.76450 -22.93090 2.18895 -3.96668 -3.08343 5.24391 
62.81450 92.05980 72.56770 6.97573 3.34234 154.00800 1.80742 6.71836 -4.41738 -2.84662 13.43350 -7.64586 -1.85818 1.64021 58.12740 -0.00000 -0.00000 0.00000 -93.07840 -64.45900 -92.58070 -21.78870 34.76990 -81.43340 5.55594 9.67997 -0.87718 18.37420 0.79576 1.38138 -57.85250 -52.11580 -63.78620 12.55850 32.00640 123.23400 -5.55712 9.68432 0.87760 24.53990 -9.21144 -2.04059 3.02643 37.85740 8.55690 -15.24780 -3.04460 0.62211 -0.15576 -37.44950 -10.44830 -13.09300 -9.09104 -5.41498 -8.39683 27.41980 23.56580 18.00720 -23.88580 2.37776 -2.92717 -2.65243 3.27292 
63.05170 92.80850 73.72520 5.80421 3.11805 154.84000 1.70085 6.57818 -4.04346 -3.26720 13.20880 -6.98136 -2.28527 1.50255 57.66790 -0.00000 -0.00000 0.00000 -93.15800 -63.06080 -91.47340 -21.73430 34.72290 -81.48980 5.55594 9.67997 -0.87718 18.40260 0.83154 1.55021 -57.28510 -55.12040 -60.95620 12.53030 33.03540 124.82400 -5.55712 9.68432 0.87760 24.21630 -9.81599 -1.21212 1.88070 35.60020 8.17416 -15.17930 -5.15865 0.35017 0.52372 -30.75460 -7.15842 -13.94440 -9.39247 -6.11167 -7.40342 26.20580 21.29170 16.31500 -23.13170 2.01450 -3.61172 -3.71320 3.06012 
63.17880 93.48380 74.83930 4.73467 2.85445 155.21201 1.50090 6.49303 -3.56984 -3.47787 13.06990 -6.15450 -2.86156 1.03386 57.33280 -0.00000 -0.00000 0.00000 -94.10310 -62.32360 -91.18090 -21.80730 34.75710 -81.52290 5.55594 9.67997 -0.87718 18.23540 0.87015 1.76276 -55.70920 -58.70300 -56.61150 13.26420 34.48060 124.79000 -5.55712 9.68432 0.87760 23.77410 -9.98450 -0.41817 0.84325 33.19990 8.94059 -14.28700 -5.72735 0.26224 0.71279 -25.95330 -6.70754 -14.73510 -9.68091 -7.19209 -6.61468 24.59490 19.63380 13.24990 -20.56720 1.28257 -6.39798 -7.74712 2.48831 
